<svg width="111" height="79" viewBox="0 0 111 79" fill="none" xmlns="http://www.w3.org/2000/svg">
<path d="M59.6528 54.6669C59.6303 55.1421 59.5368 55.6062 59.3797 56.0423C59.3591 56.1 59.3385 56.1559 59.3161 56.2118C58.7587 57.5984 57.5561 58.6998 55.9869 59.0687C53.6489 59.6204 51.311 58.3531 50.46 56.1858C50.4394 56.1336 50.4188 56.0814 50.4001 56.0274C50.344 55.8708 50.2954 55.7068 50.2561 55.5409C50.2355 55.4552 50.2187 55.3695 50.2037 55.2838C50.1888 55.1999 50.1757 55.116 50.1644 55.0322C50.157 54.9725 50.1514 54.911 50.1457 54.8514C50.1401 54.7862 50.1364 54.7191 50.1345 54.6539C50.1308 54.6091 50.1289 54.5644 50.1289 54.5197C50.1214 54.16 50.157 53.8059 50.2318 53.463C50.2374 53.4332 50.2449 53.4015 50.2524 53.3717C50.3627 52.8965 50.5479 52.4436 50.7948 52.0299C50.8116 52.0038 50.8266 51.9759 50.8453 51.9498C51.0678 51.592 51.3372 51.264 51.6476 50.977L51.6533 50.9714C51.8852 50.7552 52.1395 50.5614 52.4164 50.3955C52.4276 50.3881 52.4388 50.3825 52.45 50.3769C52.8241 50.1514 53.2356 49.9762 53.6788 49.8607C53.705 49.8532 53.7312 49.8476 53.7574 49.8402C53.7705 49.8365 53.7836 49.8346 53.7986 49.8309C54.1184 49.7563 54.4382 49.7153 54.7543 49.706C54.7954 49.7041 54.8366 49.7041 54.8759 49.7041C55.3154 49.7023 55.7437 49.7619 56.1552 49.8756C56.6134 50.0005 57.0474 50.1943 57.4439 50.444C57.7226 50.621 57.9825 50.826 58.2201 51.0571C58.5305 51.359 58.8018 51.7057 59.0225 52.0896C59.2375 52.4623 59.404 52.8685 59.5125 53.3065C59.5162 53.3233 59.5218 53.3419 59.5256 53.3605C59.6303 53.7985 59.6696 54.2383 59.6509 54.6669H59.6528Z" fill="#FF8300" stroke="#E6E6E6" stroke-opacity="0.8" stroke-miterlimit="10"/>
<path d="M50.1293 54.5196C50.1293 54.5643 50.1312 54.609 50.135 54.6537L3.78381 45.5836C3.78381 45.5836 3.76697 45.5948 3.75388 45.6022C3.2732 44.8437 1.49636 41.6793 2.94028 38.1478C4.0681 35.3897 6.44719 34.1504 7.30569 33.7739H7.3113L50.2322 53.4629C50.1574 53.8058 50.1219 54.1599 50.1293 54.5196Z" fill="#FF8300" stroke="#E6E6E6" stroke-opacity="0.8" stroke-miterlimit="10"/>
<path d="M7.30949 33.7725H7.30762" stroke="#E6E6E6" stroke-opacity="0.8" stroke-miterlimit="10"/>
<path d="M50.8457 51.95C50.827 51.9761 50.812 52.004 50.7952 52.0301C50.5483 52.4438 50.3632 52.8967 50.2528 53.3719C50.2453 53.4017 50.2378 53.4334 50.2322 53.4632L7.31131 33.7761C7.31131 33.7761 7.30944 33.7743 7.30944 33.7724C6.4977 31.1484 7.10183 28.3624 8.94226 26.4745C10.6817 24.6911 12.9055 24.3407 13.7753 24.2606C13.7921 24.2587 13.8089 24.2568 13.8239 24.2568L50.8457 51.95Z" fill="#FF8300" stroke="#E6E6E6" stroke-opacity="0.8" stroke-miterlimit="10"/>
<path d="M13.986 24.2437C13.9411 24.2474 13.8868 24.2511 13.8232 24.2567" stroke="#E6E6E6" stroke-opacity="0.8" stroke-miterlimit="10"/>
<path d="M51.6477 50.9772C51.3372 51.2642 51.0679 51.5922 50.8453 51.95L13.8235 24.2568C13.8085 24.2568 13.7917 24.2587 13.7749 24.2606C12.8864 21.7037 13.7749 18.8524 15.9482 17.2832C18.0411 15.7737 20.9047 15.7532 23.0574 17.2385L51.6477 50.9772Z" fill="#FF8300" stroke="#E6E6E6" stroke-opacity="0.8" stroke-miterlimit="10"/>
<path d="M23.1231 17.283C23.1006 17.2681 23.0801 17.2532 23.0576 17.2383" stroke="#E6E6E6" stroke-opacity="0.8" stroke-miterlimit="10"/>
<path d="M13.8203 24.3888C13.8034 24.346 13.7885 24.3031 13.7754 24.2603" stroke="#E6E6E6" stroke-opacity="0.8" stroke-miterlimit="10"/>
<path d="M52.4499 50.3769C52.4387 50.3825 52.4275 50.3881 52.4163 50.3955C52.1395 50.5614 51.8851 50.7552 51.6532 50.9714L51.6475 50.977L23.0573 17.2383L23.0236 17.1992C21.7854 14.3963 22.6851 11.1648 25.0343 9.53788C27.0056 8.17373 29.6989 8.14391 31.8424 9.47266L31.8498 9.48757L52.4499 50.3769Z" fill="#FF8300" stroke="#E6E6E6" stroke-opacity="0.8" stroke-miterlimit="10"/>
<path d="M31.8428 9.47266C31.8428 9.47266 31.8484 9.47452 31.8503 9.47638C31.8839 9.49688 31.9157 9.51738 31.9494 9.53788" stroke="#E6E6E6" stroke-opacity="0.8" stroke-miterlimit="10"/>
<path d="M51.7746 51.128L51.6475 50.9771" stroke="#E6E6E6" stroke-opacity="0.8" stroke-miterlimit="10"/>
<path d="M53.7571 49.8404C53.7309 49.8478 53.7047 49.8534 53.6785 49.8608C53.2353 49.9764 52.8238 50.1516 52.4497 50.3771L31.8496 9.48776V9.47657C31.96 6.75944 33.7162 4.37962 36.2655 3.55404C38.4576 2.84028 40.947 3.37327 42.7837 4.89397L53.7571 49.8404Z" fill="#FF8300" stroke="#E6E6E6" stroke-opacity="0.8" stroke-miterlimit="10"/>
<path d="M54.876 3.74777V49.7042C54.8368 49.7042 54.7956 49.7042 54.7545 49.7061C54.4384 49.7154 54.1185 49.7564 53.7987 49.831C53.7837 49.8347 53.7707 49.8365 53.7576 49.8403L42.7842 4.89575C43.9139 2.86442 45.9432 1.44249 48.2924 1.176C50.7164 0.902049 53.1796 1.88976 54.8667 3.73845C54.8704 3.74218 54.8723 3.74404 54.876 3.74777Z" fill="#FF8300" stroke="#E6E6E6" stroke-opacity="0.8" stroke-miterlimit="10"/>
<path d="M50.4601 56.186L4.05656 57.3377C1.95241 56.1432 0.630071 53.8975 0.602016 51.4599C0.560868 47.8762 3.33461 45.8822 3.75357 45.6026C3.76666 45.5952 3.77601 45.5896 3.78349 45.584L50.1346 54.6541C50.1365 54.7194 50.1403 54.7865 50.1459 54.8517C50.1515 54.9113 50.1571 54.9728 50.1646 55.0324C50.1758 55.1163 50.187 55.2002 50.2039 55.284C50.2188 55.3698 50.2356 55.4555 50.2562 55.5412C50.2955 55.7071 50.3441 55.8711 50.4002 56.0276C50.4189 56.0817 50.4395 56.1338 50.4601 56.186Z" fill="#FF8300" stroke="#E6E6E6" stroke-opacity="0.8" stroke-miterlimit="10"/>
<path d="M50.3736 53.5281L50.2314 53.4629" stroke="#E6E6E6" stroke-opacity="0.8" stroke-miterlimit="10"/>
<path d="M7.30545 33.7743L7.23438 33.7407" stroke="#E6E6E6" stroke-opacity="0.8" stroke-miterlimit="10"/>
<path d="M52.5381 50.5521L52.4502 50.377" stroke="#E6E6E6" stroke-opacity="0.8" stroke-miterlimit="10"/>
<path d="M53.8008 50.0174L53.7578 49.8403" stroke="#E6E6E6" stroke-opacity="0.8" stroke-miterlimit="10"/>
<path d="M54.876 49.8625V49.7041" stroke="#E6E6E6" stroke-opacity="0.8" stroke-miterlimit="10"/>
<path d="M67.2817 4.79904C67.2312 4.83632 67.1807 4.87732 67.1321 4.91831L56.1568 49.8759C55.7454 49.7622 55.3171 49.7026 54.8775 49.7044V3.74797C54.8775 3.74797 54.8719 3.74238 54.8682 3.73865C56.5477 1.96637 58.9661 1.01407 61.4406 1.28615C63.7729 1.54333 65.8977 2.85903 67.2836 4.79904H67.2817Z" fill="#FF8300" stroke="#E6E6E6" stroke-opacity="0.8" stroke-miterlimit="10"/>
<path d="M13.8238 24.2566L13.792 24.2324" stroke="#E6E6E6" stroke-opacity="0.8" stroke-miterlimit="10"/>
<path d="M105.931 45.6116L59.6531 54.6668C59.6718 54.2382 59.6325 53.7984 59.5277 53.3604C59.524 53.3418 59.5184 53.3232 59.5146 53.3064L102.611 33.7814C102.611 33.7814 102.615 33.7702 102.617 33.7646C103.726 34.3424 105.656 35.6376 106.649 38.0696C108.043 41.4762 106.554 44.5549 105.931 45.6116Z" fill="#FF8300" stroke="#E6E6E6" stroke-opacity="0.8" stroke-miterlimit="10"/>
<path d="M102.617 33.7651C102.617 33.7651 102.613 33.7763 102.611 33.7819L59.5145 53.3068C59.406 52.8689 59.2395 52.4626 59.0244 52.0899L96.1192 24.3427L96.1884 24.2905C97.088 24.3781 99.2651 24.7471 100.975 26.4989C102.808 28.3793 103.414 31.1504 102.617 33.7651Z" fill="#FF8300" stroke="#E6E6E6" stroke-opacity="0.8" stroke-miterlimit="10"/>
<path d="M95.9307 24.2681C95.9756 24.2718 96.0298 24.2755 96.0934 24.2811C96.1083 24.2811 96.1233 24.283 96.1401 24.2848H96.142C96.157 24.2848 96.1719 24.2886 96.1888 24.2904" stroke="#E6E6E6" stroke-opacity="0.8" stroke-miterlimit="10"/>
<path d="M102.605 33.8004C102.605 33.8004 102.607 33.8004 102.607 33.7966C102.609 33.7911 102.611 33.7873 102.611 33.7817" stroke="#E6E6E6" stroke-opacity="0.8" stroke-miterlimit="10"/>
<path d="M96.1404 24.2847C96.1348 24.3034 96.1273 24.3239 96.1198 24.3425L59.025 52.0897C58.8043 51.7058 58.5331 51.3592 58.2227 51.0573L86.8597 17.2646C89.0106 15.7774 91.8741 15.7979 93.967 17.3074C96.1404 18.8766 97.0307 21.726 96.1404 24.2847Z" fill="#FF8300" stroke="#E6E6E6" stroke-opacity="0.8" stroke-miterlimit="10"/>
<path d="M86.8594 17.2646C86.837 17.2777 86.8164 17.2926 86.7939 17.3075" stroke="#E6E6E6" stroke-opacity="0.8" stroke-miterlimit="10"/>
<path d="M96.119 24.3423C96.1115 24.3665 96.1041 24.3889 96.0947 24.4131" stroke="#E6E6E6" stroke-opacity="0.8" stroke-miterlimit="10"/>
<path d="M86.8932 17.2236L86.8595 17.2627L58.2225 51.0573C57.985 50.8262 57.725 50.6212 57.4463 50.4442L78.067 9.51198L78.0744 9.49707C80.2179 8.16832 82.9112 8.19814 84.8825 9.5623C87.2317 11.1892 88.1313 14.4207 86.8932 17.2236Z" fill="#FF8300" stroke="#E6E6E6" stroke-opacity="0.8" stroke-miterlimit="10"/>
<path d="M58.222 51.0571L58.1416 51.1522" stroke="#E6E6E6" stroke-opacity="0.8" stroke-miterlimit="10"/>
<path d="M78.0744 9.49707C78.0744 9.49707 78.0688 9.49893 78.0669 9.5008C78.0332 9.5213 78.0014 9.5418 77.9678 9.5623" stroke="#E6E6E6" stroke-opacity="0.8" stroke-miterlimit="10"/>
<path d="M78.0666 9.50075V9.51193L57.4459 50.4441C57.0494 50.1944 56.6155 50.0006 56.1572 49.8757L67.1325 4.92001C67.1811 4.87715 67.2316 4.83615 67.2821 4.79888C69.102 3.36949 71.5185 2.88309 73.6507 3.57822C76.2 4.40379 77.9562 6.78361 78.0666 9.50075Z" fill="#FF8300" stroke="#E6E6E6" stroke-opacity="0.8" stroke-miterlimit="10"/>
<path d="M109.128 51.4839C109.1 53.9214 107.777 56.1671 105.673 57.3617L59.3164 56.2118C59.3389 56.1559 59.3594 56.1 59.38 56.0422C59.5371 55.6061 59.6306 55.1421 59.6531 54.6669L105.931 45.6116L105.946 45.6079C105.946 45.6079 105.963 45.6191 105.976 45.6265C106.395 45.9061 109.169 47.9001 109.128 51.4839Z" fill="#FF8300" stroke="#E6E6E6" stroke-opacity="0.8" stroke-miterlimit="10"/>
<path d="M57.4462 50.4443L57.3789 50.5767" stroke="#E6E6E6" stroke-opacity="0.8" stroke-miterlimit="10"/>
<path d="M56.1574 49.8755L56.1162 50.0413" stroke="#E6E6E6" stroke-opacity="0.8" stroke-miterlimit="10"/>
</svg>
