<svg width="678" height="487" viewBox="0 0 678 487" fill="none" xmlns="http://www.w3.org/2000/svg">
<path d="M363.971 336.998C363.834 339.927 363.264 342.788 362.306 345.476C362.18 345.832 362.055 346.177 361.918 346.521C358.519 355.069 351.185 361.858 341.616 364.133C327.36 367.533 313.103 359.721 307.913 346.36C307.788 346.039 307.662 345.717 307.548 345.384C307.206 344.419 306.91 343.408 306.67 342.386C306.545 341.857 306.442 341.329 306.351 340.8C306.26 340.283 306.18 339.766 306.111 339.249C306.066 338.882 306.031 338.502 305.997 338.135C305.963 337.733 305.94 337.319 305.929 336.917C305.906 336.641 305.895 336.366 305.895 336.09C305.849 333.873 306.066 331.69 306.522 329.576C306.556 329.392 306.602 329.197 306.647 329.013C307.32 326.084 308.449 323.292 309.955 320.742C310.058 320.581 310.149 320.408 310.263 320.248C311.62 318.042 313.263 316.02 315.156 314.251L315.19 314.216C316.604 312.884 318.155 311.689 319.843 310.666C319.912 310.62 319.98 310.586 320.049 310.551C322.33 309.161 324.839 308.081 327.542 307.369C327.702 307.323 327.861 307.289 328.021 307.243C328.101 307.22 328.181 307.208 328.272 307.185C330.222 306.726 332.173 306.473 334.1 306.416C334.351 306.404 334.602 306.404 334.841 306.404C337.522 306.393 340.134 306.76 342.643 307.461C345.437 308.231 348.083 309.426 350.501 310.965C352.201 312.056 353.786 313.32 355.234 314.745C357.128 316.606 358.781 318.743 360.127 321.109C361.439 323.407 362.454 325.911 363.115 328.611C363.138 328.714 363.172 328.829 363.195 328.944C363.834 331.644 364.073 334.355 363.959 336.998H363.971Z" fill="#D9D9D9" stroke="white" stroke-miterlimit="10"/>
<path d="M305.895 336.09C305.895 336.366 305.907 336.641 305.929 336.917L23.2812 281.003C23.2812 281.003 23.1786 281.072 23.0987 281.118C20.1676 276.443 9.33244 256.936 18.1374 235.165C25.0148 218.163 39.5225 210.523 44.7576 208.202H44.7918L306.522 329.576C306.066 331.69 305.849 333.873 305.895 336.09Z" fill="#D9D9D9" stroke="white" stroke-miterlimit="10"/>
<path d="M44.7806 208.191H44.7686" stroke="white" stroke-miterlimit="10"/>
<path d="M310.263 320.247C310.149 320.408 310.058 320.581 309.955 320.741C308.45 323.292 307.32 326.084 306.647 329.013C306.602 329.197 306.556 329.392 306.522 329.576L44.7913 208.214C44.7913 208.214 44.7799 208.202 44.7799 208.191C39.83 192.015 43.5139 174.84 54.7368 163.203C65.3438 152.208 78.9048 150.048 84.2083 149.554C84.311 149.543 84.4136 149.531 84.5049 149.531L310.263 320.247Z" fill="#D9D9D9" stroke="white" stroke-miterlimit="10"/>
<path d="M85.4971 149.451C85.2234 149.474 84.8927 149.497 84.5049 149.532" stroke="white" stroke-miterlimit="10"/>
<path d="M315.157 314.251C313.263 316.02 311.621 318.042 310.264 320.248L84.5055 149.532C84.4143 149.532 84.3116 149.543 84.209 149.555C78.7914 133.793 84.209 116.216 97.462 106.542C110.225 97.2369 127.686 97.1105 140.814 106.267L315.157 314.251Z" fill="#D9D9D9" stroke="white" stroke-miterlimit="10"/>
<path d="M141.213 106.542C141.076 106.45 140.95 106.359 140.813 106.267" stroke="white" stroke-miterlimit="10"/>
<path d="M84.4827 150.347C84.3801 150.083 84.2888 149.819 84.209 149.554" stroke="white" stroke-miterlimit="10"/>
<path d="M320.049 310.551C319.981 310.586 319.912 310.62 319.844 310.666C318.156 311.689 316.605 312.884 315.19 314.216L315.156 314.251L140.814 106.267L140.608 106.025C133.058 88.7471 138.544 68.8264 152.869 58.7971C164.89 50.3877 181.314 50.2039 194.385 58.395L194.43 58.4869L320.049 310.551Z" fill="#D9D9D9" stroke="white" stroke-miterlimit="10"/>
<path d="M194.385 58.3949C194.385 58.3949 194.419 58.4064 194.43 58.4179C194.636 58.5442 194.83 58.6706 195.035 58.797" stroke="white" stroke-miterlimit="10"/>
<path d="M315.932 315.181L315.156 314.251" stroke="white" stroke-miterlimit="10"/>
<path d="M328.022 307.243C327.862 307.289 327.703 307.323 327.543 307.369C324.84 308.081 322.331 309.161 320.049 310.551L194.431 58.4868V58.4179C195.104 41.6679 205.813 26.9974 221.359 21.9081C234.726 17.5081 249.906 20.7937 261.107 30.1682L328.022 307.243Z" fill="#D9D9D9" stroke="white" stroke-miterlimit="10"/>
<path d="M334.842 23.1029V306.404C334.603 306.404 334.352 306.404 334.101 306.416C332.173 306.473 330.223 306.726 328.273 307.185C328.182 307.208 328.102 307.22 328.022 307.243L261.106 30.1797C267.995 17.6575 280.37 8.89191 294.695 7.24909C309.477 5.56031 324.498 11.6491 334.785 23.0455C334.808 23.0685 334.819 23.08 334.842 23.1029Z" fill="#D9D9D9" stroke="white" stroke-miterlimit="10"/>
<path d="M307.914 346.36L24.9464 353.46C12.1154 346.096 4.05177 332.253 3.88069 317.226C3.62977 295.134 20.544 282.842 23.0988 281.118C23.1786 281.072 23.2356 281.038 23.2812 281.003L305.929 336.917C305.941 337.319 305.964 337.733 305.998 338.135C306.032 338.502 306.066 338.881 306.112 339.249C306.18 339.766 306.249 340.283 306.351 340.8C306.443 341.328 306.545 341.857 306.671 342.385C306.91 343.408 307.207 344.419 307.549 345.384C307.663 345.717 307.788 346.039 307.914 346.36Z" fill="#D9D9D9" stroke="white" stroke-miterlimit="10"/>
<path d="M307.389 329.978L306.522 329.576" stroke="white" stroke-miterlimit="10"/>
<path d="M44.7576 208.202L44.3242 207.995" stroke="white" stroke-miterlimit="10"/>
<path d="M320.585 311.631L320.049 310.551" stroke="white" stroke-miterlimit="10"/>
<path d="M328.284 308.334L328.021 307.243" stroke="white" stroke-miterlimit="10"/>
<path d="M334.842 307.381V306.404" stroke="white" stroke-miterlimit="10"/>
<path d="M410.494 29.5823C410.186 29.8121 409.878 30.0648 409.582 30.3175L342.655 307.461C340.146 306.76 337.534 306.393 334.854 306.404V23.1029C334.854 23.1029 334.82 23.0684 334.797 23.0455C345.039 12.1201 359.786 6.24957 374.875 7.92686C389.098 9.51225 402.054 17.623 410.506 29.5823H410.494Z" fill="#D9D9D9" stroke="white" stroke-miterlimit="10"/>
<path d="M84.5046 149.531L84.3115 149.382" stroke="white" stroke-miterlimit="10"/>
<path d="M646.174 281.176L363.971 336.998C364.085 334.355 363.845 331.644 363.207 328.944C363.184 328.829 363.15 328.714 363.127 328.611L625.93 208.248C625.93 208.248 625.953 208.179 625.964 208.145C632.727 211.706 644.498 219.691 650.554 234.683C659.051 255.683 649.972 274.662 646.174 281.176Z" fill="#D9D9D9" stroke="white" stroke-miterlimit="10"/>
<path d="M625.964 208.145C625.964 208.145 625.941 208.214 625.93 208.248L363.127 328.611C362.465 325.911 361.45 323.407 360.139 321.109L586.342 150.06L586.764 149.738C592.25 150.278 605.525 152.553 615.95 163.352C627.127 174.944 630.823 192.027 625.964 208.145Z" fill="#D9D9D9" stroke="white" stroke-miterlimit="10"/>
<path d="M585.189 149.601C585.463 149.624 585.794 149.647 586.182 149.681C586.273 149.681 586.364 149.692 586.467 149.704H586.478C586.57 149.704 586.661 149.727 586.763 149.738" stroke="white" stroke-miterlimit="10"/>
<path d="M625.896 208.367C625.896 208.367 625.906 208.367 625.906 208.343C625.916 208.308 625.927 208.284 625.927 208.248" stroke="white" stroke-miterlimit="10"/>
<path d="M586.467 149.704C586.433 149.819 586.387 149.945 586.342 150.06L360.139 321.109C358.793 318.743 357.139 316.606 355.246 314.745L529.874 106.428C542.99 97.2599 560.452 97.3863 573.214 106.692C586.467 116.365 591.896 133.931 586.467 149.704Z" fill="#D9D9D9" stroke="white" stroke-miterlimit="10"/>
<path d="M529.874 106.427C529.737 106.508 529.611 106.6 529.475 106.692" stroke="white" stroke-miterlimit="10"/>
<path d="M586.342 150.06C586.296 150.209 586.25 150.347 586.193 150.497" stroke="white" stroke-miterlimit="10"/>
<path d="M530.079 106.175L529.874 106.416L355.246 314.745C353.797 313.32 352.212 312.056 350.513 310.965L476.257 58.6363L476.303 58.5444C489.373 50.3533 505.797 50.5371 517.818 58.9465C532.143 68.9758 537.629 88.8965 530.079 106.175Z" fill="#D9D9D9" stroke="white" stroke-miterlimit="10"/>
<path d="M355.245 314.745L354.755 315.331" stroke="white" stroke-miterlimit="10"/>
<path d="M476.302 58.5443C476.302 58.5443 476.268 58.5558 476.257 58.5673C476.052 58.6937 475.858 58.82 475.652 58.9464" stroke="white" stroke-miterlimit="10"/>
<path d="M476.257 58.5673V58.6363L350.513 310.965C348.095 309.426 345.449 308.231 342.654 307.461L409.581 30.3291C409.878 30.0649 410.186 29.8122 410.493 29.5824C421.591 20.7709 436.327 17.7724 449.329 22.0576C464.874 27.1469 475.584 41.8174 476.257 58.5673Z" fill="#D9D9D9" stroke="white" stroke-miterlimit="10"/>
<path d="M665.666 317.375C665.495 332.402 657.431 346.246 644.6 353.61L361.918 346.521C362.055 346.177 362.18 345.832 362.306 345.476C363.264 342.788 363.834 339.927 363.971 336.997L646.174 281.176L646.266 281.153C646.266 281.153 646.368 281.222 646.448 281.268C649.003 282.991 665.917 295.284 665.666 317.375Z" fill="#D9D9D9" stroke="white" stroke-miterlimit="10"/>
<path d="M350.512 310.965L350.102 311.781" stroke="white" stroke-miterlimit="10"/>
<path d="M342.654 307.461L342.403 308.484" stroke="white" stroke-miterlimit="10"/>
</svg>
